<svg width="324" height="326" viewBox="0 0 324 326" fill="none" xmlns="http://www.w3.org/2000/svg">
<circle cx="73" cy="51" r="19.5" stroke="#05CD77" stroke-width="10"/>
<circle cx="162" cy="51" r="19.5" stroke="#05CD77" stroke-width="10"/>
<circle cx="251" cy="51" r="19.5" stroke="#05CD77" stroke-width="10"/>
<circle cx="73" cy="163" r="19.5" stroke="#05CD77" stroke-width="10"/>
<circle cx="162" cy="163" r="19.5" stroke="#05CD77" stroke-width="10"/>
<circle cx="251" cy="163" r="19.5" stroke="#05CD77" stroke-width="10"/>
<circle cx="73" cy="275" r="19.5" stroke="#05CD77" stroke-width="10"/>
<circle cx="162" cy="275" r="19.5" stroke="#05CD77" stroke-width="10"/>
<circle cx="251" cy="275" r="19.5" stroke="#05CD77" stroke-width="10"/>
<line x1="73" y1="75" x2="73" y2="140" stroke="#05CD77" stroke-width="10"/>
<line x1="162" y1="187" x2="162" y2="252" stroke="#05CD77" stroke-width="10"/>
<line x1="205" y1="56" x2="205" y2="163" stroke="#05CD77" stroke-width="10"/>
<line x1="179" y1="51" x2="231" y2="51" stroke="#05CD77" stroke-width="10"/>
<line x1="179" y1="276" x2="231" y2="276" stroke="#05CD77" stroke-width="10"/>
<line x1="179" y1="219" x2="231" y2="219" stroke="#05CD77" stroke-width="10"/>
<line x1="179" y1="165" x2="231" y2="165" stroke="#05CD77" stroke-width="10"/>
<line x1="90.7505" y1="65.6934" x2="157.022" y2="140.86" stroke="#05CD77" stroke-width="10"/>
</svg>
